<svg width="715" height="66" viewBox="0 0 715 66" fill="none" xmlns="http://www.w3.org/2000/svg">
<ellipse cx="19.1547" cy="45.3124" rx="14.3182" ry="18.9716" fill="white"/>
<path d="M11.9956 28.4883L33.4729 52.8292" stroke="#2F3D4C" stroke-width="3"/>
<path d="M2 37L27 65" stroke="#2F3D4C" stroke-width="3"/>
<path d="M25.3889 28.0928L4.88719 52.2679" stroke="#2F3D4C" stroke-width="3"/>
<path d="M34.9977 37.835L11.5014 64.8929" stroke="#2F3D4C" stroke-width="3"/>
<path d="M11.9162 18.6081C-4.34869 15.4296 9.27023 18.6081 10.6206 25.3409C16.9445 19.9683 25.6322 23 28.1206 25.3409C29.9109 20.129 44.8861 15.9252 25.6322 18.6081C25.6322 13.567 39.955 -2.88912 21.308 11.7215C19.0777 9.38035 21.308 -10.6053 15.5121 10.7987C-4.77352 4.08294 13.7066 12.9006 11.9162 18.6081Z" fill="#2F3D4C" stroke="white" stroke-width="2"/>
<path d="M569.798 41.176C568.625 41.176 567.503 41 566.432 40.648C565.361 40.2813 564.518 39.812 563.902 39.24L564.716 37.524C565.303 38.0373 566.051 38.4627 566.96 38.8C567.869 39.1373 568.815 39.306 569.798 39.306C570.693 39.306 571.419 39.2033 571.976 38.998C572.533 38.7927 572.944 38.514 573.208 38.162C573.472 37.7953 573.604 37.3847 573.604 36.93C573.604 36.402 573.428 35.9767 573.076 35.654C572.739 35.3313 572.291 35.0747 571.734 34.884C571.191 34.6787 570.59 34.5027 569.93 34.356C569.27 34.2093 568.603 34.0407 567.928 33.85C567.268 33.6447 566.659 33.388 566.102 33.08C565.559 32.772 565.119 32.3613 564.782 31.848C564.445 31.32 564.276 30.6453 564.276 29.824C564.276 29.032 564.481 28.306 564.892 27.646C565.317 26.9713 565.963 26.436 566.828 26.04C567.708 25.6293 568.823 25.424 570.172 25.424C571.067 25.424 571.954 25.5413 572.834 25.776C573.714 26.0107 574.477 26.348 575.122 26.788L574.396 28.548C573.736 28.108 573.039 27.7927 572.306 27.602C571.573 27.3967 570.861 27.294 570.172 27.294C569.307 27.294 568.595 27.404 568.038 27.624C567.481 27.844 567.07 28.1373 566.806 28.504C566.557 28.8707 566.432 29.2813 566.432 29.736C566.432 30.2787 566.601 30.7113 566.938 31.034C567.29 31.3567 567.737 31.6133 568.28 31.804C568.837 31.9947 569.446 32.1707 570.106 32.332C570.766 32.4787 571.426 32.6473 572.086 32.838C572.761 33.0287 573.369 33.278 573.912 33.586C574.469 33.894 574.917 34.3047 575.254 34.818C575.591 35.3313 575.76 35.9913 575.76 36.798C575.76 37.5753 575.547 38.3013 575.122 38.976C574.697 39.636 574.037 40.1713 573.142 40.582C572.262 40.978 571.147 41.176 569.798 41.176ZM593.252 29.23C594.191 29.23 595.019 29.4133 595.738 29.78C596.457 30.1467 597.014 30.704 597.41 31.452C597.821 32.2 598.026 33.146 598.026 34.29V41H595.914V34.532C595.914 33.4027 595.65 32.552 595.122 31.98C594.594 31.408 593.853 31.122 592.9 31.122C592.196 31.122 591.58 31.2687 591.052 31.562C590.524 31.8553 590.113 32.288 589.82 32.86C589.541 33.432 589.402 34.1433 589.402 34.994V41H587.29V34.532C587.29 33.4027 587.026 32.552 586.498 31.98C585.985 31.408 585.244 31.122 584.276 31.122C583.587 31.122 582.978 31.2687 582.45 31.562C581.922 31.8553 581.511 32.288 581.218 32.86C580.925 33.432 580.778 34.1433 580.778 34.994V41H578.666V29.34H580.69V32.442L580.36 31.65C580.727 30.8873 581.291 30.2933 582.054 29.868C582.817 29.4427 583.704 29.23 584.716 29.23C585.831 29.23 586.791 29.5087 587.598 30.066C588.405 30.6087 588.933 31.4373 589.182 32.552L588.324 32.2C588.676 31.3053 589.292 30.5867 590.172 30.044C591.052 29.5013 592.079 29.23 593.252 29.23ZM609.15 41V38.536L609.04 38.074V33.872C609.04 32.9773 608.776 32.288 608.248 31.804C607.735 31.3053 606.957 31.056 605.916 31.056C605.227 31.056 604.552 31.1733 603.892 31.408C603.232 31.628 602.675 31.9287 602.22 32.31L601.34 30.726C601.941 30.242 602.66 29.8753 603.496 29.626C604.347 29.362 605.234 29.23 606.158 29.23C607.757 29.23 608.989 29.6187 609.854 30.396C610.719 31.1733 611.152 32.3613 611.152 33.96V41H609.15ZM605.322 41.132C604.457 41.132 603.694 40.9853 603.034 40.692C602.389 40.3987 601.89 39.9953 601.538 39.482C601.186 38.954 601.01 38.36 601.01 37.7C601.01 37.0693 601.157 36.4973 601.45 35.984C601.758 35.4707 602.249 35.06 602.924 34.752C603.613 34.444 604.537 34.29 605.696 34.29H609.392V35.808H605.784C604.728 35.808 604.017 35.984 603.65 36.336C603.283 36.688 603.1 37.1133 603.1 37.612C603.1 38.184 603.327 38.646 603.782 38.998C604.237 39.3353 604.867 39.504 605.674 39.504C606.466 39.504 607.155 39.328 607.742 38.976C608.343 38.624 608.776 38.1107 609.04 37.436L609.458 38.888C609.179 39.5773 608.688 40.1273 607.984 40.538C607.28 40.934 606.393 41.132 605.322 41.132ZM615.061 41V29.34H617.085V32.508L616.887 31.716C617.209 30.9093 617.752 30.2933 618.515 29.868C619.277 29.4427 620.216 29.23 621.331 29.23V31.276C621.243 31.2613 621.155 31.254 621.067 31.254C620.993 31.254 620.92 31.254 620.847 31.254C619.717 31.254 618.823 31.5913 618.163 32.266C617.503 32.9407 617.173 33.916 617.173 35.192V41H615.061ZM628.41 41.132C627.237 41.132 626.328 40.8167 625.682 40.186C625.037 39.5553 624.714 38.6533 624.714 37.48V26.788H626.826V37.392C626.826 38.0227 626.98 38.5067 627.288 38.844C627.611 39.1813 628.066 39.35 628.652 39.35C629.312 39.35 629.862 39.1667 630.302 38.8L630.962 40.318C630.64 40.5967 630.251 40.802 629.796 40.934C629.356 41.066 628.894 41.132 628.41 41.132ZM622.734 31.078V29.34H630.17V31.078H622.734ZM635.765 41L631.431 29.34H633.433L637.283 39.9H636.337L640.341 29.34H642.123L646.039 39.9H645.115L649.053 29.34H650.945L646.589 41H644.565L640.891 31.364H641.507L637.789 41H635.765ZM659.961 41V38.536L659.851 38.074V33.872C659.851 32.9773 659.587 32.288 659.059 31.804C658.545 31.3053 657.768 31.056 656.727 31.056C656.037 31.056 655.363 31.1733 654.703 31.408C654.043 31.628 653.485 31.9287 653.031 32.31L652.151 30.726C652.752 30.242 653.471 29.8753 654.307 29.626C655.157 29.362 656.045 29.23 656.969 29.23C658.567 29.23 659.799 29.6187 660.665 30.396C661.53 31.1733 661.963 32.3613 661.963 33.96V41H659.961ZM656.133 41.132C655.267 41.132 654.505 40.9853 653.845 40.692C653.199 40.3987 652.701 39.9953 652.349 39.482C651.997 38.954 651.821 38.36 651.821 37.7C651.821 37.0693 651.967 36.4973 652.261 35.984C652.569 35.4707 653.06 35.06 653.735 34.752C654.424 34.444 655.348 34.29 656.507 34.29H660.203V35.808H656.595C655.539 35.808 654.827 35.984 654.461 36.336C654.094 36.688 653.911 37.1133 653.911 37.612C653.911 38.184 654.138 38.646 654.593 38.998C655.047 39.3353 655.678 39.504 656.485 39.504C657.277 39.504 657.966 39.328 658.553 38.976C659.154 38.624 659.587 38.1107 659.851 37.436L660.269 38.888C659.99 39.5773 659.499 40.1273 658.795 40.538C658.091 40.934 657.203 41.132 656.133 41.132ZM669.875 41.132C668.702 41.132 667.792 40.8167 667.147 40.186C666.502 39.5553 666.179 38.6533 666.179 37.48V26.788H668.291V37.392C668.291 38.0227 668.445 38.5067 668.753 38.844C669.076 39.1813 669.53 39.35 670.117 39.35C670.777 39.35 671.327 39.1667 671.767 38.8L672.427 40.318C672.104 40.5967 671.716 40.802 671.261 40.934C670.821 41.066 670.359 41.132 669.875 41.132ZM664.199 31.078V29.34H671.635V31.078H664.199ZM679.676 41.132C678.488 41.132 677.424 40.8753 676.486 40.362C675.562 39.8487 674.836 39.1447 674.308 38.25C673.78 37.3553 673.516 36.3287 673.516 35.17C673.516 34.0113 673.78 32.9847 674.308 32.09C674.836 31.1953 675.562 30.4987 676.486 30C677.424 29.4867 678.488 29.23 679.676 29.23C680.732 29.23 681.67 29.4427 682.492 29.868C683.328 30.2787 683.973 30.8947 684.428 31.716L682.822 32.75C682.44 32.178 681.971 31.76 681.414 31.496C680.871 31.2173 680.284 31.078 679.654 31.078C678.891 31.078 678.209 31.2467 677.608 31.584C677.006 31.9213 676.53 32.398 676.178 33.014C675.826 33.6153 675.65 34.334 675.65 35.17C675.65 36.006 675.826 36.732 676.178 37.348C676.53 37.964 677.006 38.4407 677.608 38.778C678.209 39.1153 678.891 39.284 679.654 39.284C680.284 39.284 680.871 39.152 681.414 38.888C681.971 38.6093 682.44 38.184 682.822 37.612L684.428 38.624C683.973 39.4307 683.328 40.054 682.492 40.494C681.67 40.9193 680.732 41.132 679.676 41.132ZM693.238 29.23C694.191 29.23 695.027 29.4133 695.746 29.78C696.479 30.1467 697.051 30.704 697.462 31.452C697.872 32.2 698.078 33.146 698.078 34.29V41H695.966V34.532C695.966 33.4027 695.687 32.552 695.13 31.98C694.587 31.408 693.817 31.122 692.82 31.122C692.072 31.122 691.419 31.2687 690.862 31.562C690.304 31.8553 689.872 32.288 689.564 32.86C689.27 33.432 689.124 34.1433 689.124 34.994V41H687.012V24.676H689.124V32.486L688.706 31.65C689.087 30.8873 689.674 30.2933 690.466 29.868C691.258 29.4427 692.182 29.23 693.238 29.23ZM705.33 41.132C704.362 41.132 703.438 41 702.558 40.736C701.693 40.472 701.011 40.1493 700.512 39.768L701.392 38.096C701.891 38.4333 702.507 38.7193 703.24 38.954C703.974 39.1887 704.722 39.306 705.484 39.306C706.467 39.306 707.171 39.1667 707.596 38.888C708.036 38.6093 708.256 38.2207 708.256 37.722C708.256 37.3553 708.124 37.0693 707.86 36.864C707.596 36.6587 707.244 36.5047 706.804 36.402C706.379 36.2993 705.902 36.2113 705.374 36.138C704.846 36.05 704.318 35.9473 703.79 35.83C703.262 35.698 702.778 35.522 702.338 35.302C701.898 35.0673 701.546 34.752 701.282 34.356C701.018 33.9453 700.886 33.4027 700.886 32.728C700.886 32.024 701.084 31.408 701.48 30.88C701.876 30.352 702.434 29.9487 703.152 29.67C703.886 29.3767 704.751 29.23 705.748 29.23C706.511 29.23 707.281 29.3253 708.058 29.516C708.85 29.692 709.496 29.9487 709.994 30.286L709.092 31.958C708.564 31.606 708.014 31.364 707.442 31.232C706.87 31.1 706.298 31.034 705.726 31.034C704.802 31.034 704.113 31.188 703.658 31.496C703.204 31.7893 702.976 32.1707 702.976 32.64C702.976 33.036 703.108 33.344 703.372 33.564C703.651 33.7693 704.003 33.9307 704.428 34.048C704.868 34.1653 705.352 34.268 705.88 34.356C706.408 34.4293 706.936 34.532 707.464 34.664C707.992 34.7813 708.469 34.95 708.894 35.17C709.334 35.39 709.686 35.698 709.95 36.094C710.229 36.49 710.368 37.018 710.368 37.678C710.368 38.382 710.163 38.9907 709.752 39.504C709.342 40.0173 708.762 40.4207 708.014 40.714C707.266 40.9927 706.372 41.132 705.33 41.132Z" fill="white"/>
</svg>
