<svg width="34" height="65" viewBox="0 0 34 65" fill="none" xmlns="http://www.w3.org/2000/svg">
<path fill-rule="evenodd" clip-rule="evenodd" d="M30.4729 45.3124C30.4729 46.9488 30.3165 48.5368 30.0225 50.0516L26.6709 46.2531L30.2696 42.1088C30.4033 43.1502 30.4729 44.2206 30.4729 45.3124ZM29.5006 38.4266C28.4262 34.7732 26.5219 31.6696 24.0946 29.5225L17.9812 36.4048L24.6718 43.9875L29.5006 38.4266ZM24.6864 48.5384L18.0927 56.1316L23.1895 61.8401C25.7375 59.932 27.8003 57.0194 29.0716 53.5082L24.6864 48.5384ZM16.0818 53.8795L9.25274 46.2309L15.974 38.6643L22.6873 46.2727L16.0818 53.8795ZM14.0989 56.163L9.14974 61.8624C6.50079 59.8897 4.3734 56.8329 3.11023 53.1458L7.24701 48.4888L14.0989 56.163ZM11.7921 63.3873L16.1097 58.4151L20.5404 63.3775C19.1583 63.9661 17.6845 64.284 16.1547 64.284C14.6334 64.284 13.1675 63.9696 11.7921 63.3873ZM21.6361 27.7807L15.985 34.1424L10.4716 27.894C12.2138 26.8947 14.1355 26.3408 16.1547 26.3408C18.0963 26.3408 19.9477 26.8529 21.6361 27.7807ZM7.24468 43.9818L13.9778 36.402L8.04355 29.6764C5.60088 31.9053 3.70637 35.1131 2.68261 38.8723L7.24468 43.9818ZM1.83655 45.3124C1.83655 46.8039 1.96644 48.2551 2.21204 49.6474L5.23895 46.2398L1.98258 42.5927C1.88634 43.4809 1.83655 44.3889 1.83655 45.3124Z" fill="white"/>
<path d="M8.91625 18.6081C-7.34869 15.4296 6.27023 18.6081 7.62059 25.3409C13.9445 19.9683 22.6322 23 25.1206 25.3409C26.9109 20.129 41.8861 15.9252 22.6322 18.6081C22.6322 13.567 36.955 -2.88912 18.308 11.7215C16.0777 9.38035 18.308 -10.6053 12.5121 10.7987C-7.77352 4.08294 10.7066 12.9006 8.91625 18.6081Z" stroke="white" stroke-width="2"/>
</svg>
